<svg width="6425" height="1846" viewBox="0 0 6425 1846" fill="none" xmlns="http://www.w3.org/2000/svg">
<g clip-path="url(#clip0_298_14)">
<path d="M5908.34 1582.93C5903 1408.03 5867.05 1240.47 5790.13 1082.65C5744.34 988.605 5687 902.905 5608.38 832.33C5542.21 772.9 5496.21 699.934 5470.8 614.563C5415.17 427.538 5478.92 231.4 5639.46 106.017C5923.42 -115.742 6346.42 40.929 6413.96 394.567C6445 557.188 6400.42 701.905 6280.55 815.23C6126.46 960.921 6039.38 1139.85 5994.59 1342.96C5973.42 1438.94 5965.55 1536.61 5962.75 1634.71C5962.63 1638.18 5962.75 1641.69 5962.38 1645.14C5960.3 1664.53 5949.8 1678.46 5937.5 1678.41C5924.67 1678.37 5909.34 1661.2 5908.59 1643.79C5907.67 1623.54 5908.34 1603.22 5908.34 1582.93Z" fill="#030404"/>
<path d="M158.221 1240.66C158.221 1314.93 158.171 1389.2 158.25 1463.47C158.279 1493.15 169.267 1511.09 197.608 1520C250.9 1536.76 305.113 1537.36 358.525 1520.58C388.975 1511.02 400.933 1492.11 400.979 1460.51C401.196 1314.29 401 1168.07 401.829 1021.86C401.971 996.522 391.813 978.747 370.092 968.747C309.346 940.768 247.842 940.255 187.058 968.718C167.129 978.047 157.717 994.651 157.946 1017.86C158.683 1092.12 158.221 1166.39 158.221 1240.66ZM0.587273 1302.21C0.587273 1153.71 0.699773 1005.21 0.387272 856.713C0.362272 843.663 2.34144 835.926 17.9831 836.059C121.221 836.938 224.521 833.584 327.679 838.73C379.35 841.305 427.996 857.109 472.238 884.172C528.109 918.343 557.267 969.747 557.859 1034.45C559.288 1191.06 558.788 1347.69 558.313 1504.31C558.213 1537.41 539.675 1562.21 514.871 1582.2C474.525 1614.73 426.967 1631.53 376.854 1640.14C308.358 1651.91 239.633 1653.89 171.858 1634.26C160.887 1631.08 157.883 1633.88 157.979 1645.33C158.521 1707.39 158.071 1769.46 158.575 1831.52C158.679 1844.53 157.537 1849.41 142.671 1843.08C104.283 1826.72 65.3873 1811.67 29.7415 1789.5C9.49978 1776.9 -0.221062 1761.25 -0.000228027 1735.52C1.27894 1591.09 0.616439 1446.65 0.587273 1302.21Z" fill="#231F20"/>
<path d="M1543.78 1048.6C1555.81 1047.39 1562.79 1039.39 1570.18 1032.14C1631.47 972.021 1692.91 912.05 1753.83 851.559C1765.41 840.059 1777.83 835.321 1794.11 835.488C1845.15 836.021 1896.19 835.271 1947.23 835.167C1953.3 835.155 1961.39 832.85 1963.73 840.759C1965.71 847.4 1958.14 850.109 1954.21 853.967C1864 942.584 1773.8 1031.2 1683.28 1119.51C1675.85 1126.75 1676.17 1132.02 1681.19 1140.26C1776.32 1296.72 1867.19 1455.73 1963.8 1611.32C1966.73 1616.05 1972.73 1621.06 1970.01 1626.63C1966.62 1633.55 1958.55 1630.13 1952.62 1630.16C1904.47 1630.41 1856.31 1629.75 1808.18 1630.58C1794.26 1630.82 1786.37 1626.39 1779.3 1614.33C1709.56 1495.35 1639.26 1376.7 1568.86 1258.1C1565.67 1252.71 1564.33 1242.11 1555.54 1244.87C1547.06 1247.53 1546.08 1257.18 1546.12 1265.62C1546.68 1381.04 1547.07 1496.47 1548.06 1611.89C1548.18 1625.1 1545.07 1630.47 1530.77 1630.18C1490.76 1629.37 1450.69 1629.09 1410.71 1630.37C1392.93 1630.94 1388.16 1625.32 1388.21 1607.77C1388.95 1364.13 1388.98 1120.49 1389.21 876.846C1389.29 790.992 1389.89 705.134 1389.17 619.288C1389.02 602.017 1394.59 598.121 1410.98 598.533C1448.06 599.475 1485.2 598.225 1522.31 597.759C1544.32 597.488 1547.17 600.159 1547.17 622.463C1547.16 751.825 1547.2 881.188 1546.93 1010.55C1546.9 1023.13 1544.89 1035.71 1543.78 1048.6Z" fill="#231F20"/>
<path d="M5341.05 1277.73C5341.05 1413.51 5340.3 1549.28 5341.5 1685.04C5341.88 1730.6 5327.09 1765.78 5289.46 1792.25C5262.71 1811.02 5235.38 1828.16 5204.96 1840.13C5187.59 1846.98 5185.13 1845.7 5185.05 1826.59C5184.67 1767.41 5184.21 1708.22 5185 1649.05C5185.21 1633.19 5180.46 1630.85 5166.09 1634.18C5076.59 1654.99 4987.75 1653.19 4900.5 1622.7C4866.75 1610.9 4836.34 1593.15 4812.13 1565.97C4794 1545.6 4784.29 1521.96 4784.63 1494.68C4787.29 1292.18 4786.54 1089.69 4784.42 887.197C4784.29 876.776 4785.21 866.292 4784.34 855.951C4783.17 842.301 4787.88 836.98 4802.09 837.967C4831 839.98 4860 840.788 4888.96 842.026C4900.67 842.526 4912.29 841.401 4923.42 838.055C4935.84 834.322 4938.54 839.167 4938.54 850.634C4938.63 899.359 4939.67 948.08 4939.75 996.805C4940.05 1149.98 4940 1303.16 4940.21 1456.34C4940.25 1498.43 4953.5 1516.45 4994.71 1527.01C5045.46 1540.01 5096.09 1536.8 5145.55 1520.27C5176.17 1510.03 5184.38 1496.6 5184.71 1462.61C5186.71 1262.45 5190.42 1062.29 5185.13 862.126C5184.46 838.33 5184.88 838.63 5208.42 838.672C5246.63 838.742 5284.96 841.722 5323.09 836.326C5333.17 834.901 5338.75 839.305 5339.05 849.522C5339.3 859.376 5339.09 869.247 5339.09 879.109C5339.05 1011.98 5339.05 1144.86 5339.05 1277.73H5341.05Z" fill="#919395"/>
<path d="M2201.76 1141.95H2201.86C2201.86 1186.04 2202.01 1230.13 2201.76 1274.21C2201.7 1285.34 2204.91 1291.81 2216.99 1286.93C2276.65 1262.81 2336.84 1239.64 2388.11 1199.18C2425.28 1169.85 2447.49 1133.25 2444.89 1084.06C2443.94 1066.13 2445.01 1048.1 2445 1030.12C2444.98 992.905 2433.29 975.309 2398.24 961.609C2360.4 946.817 2321.14 946.938 2281.71 952.892C2260.94 956.026 2241.1 962.342 2223.35 974.155C2208.75 983.867 2201.29 996.73 2201.56 1014.91C2202.18 1057.25 2201.76 1099.6 2201.76 1141.95ZM2044.07 1176.9C2044.07 1069.58 2044.15 962.259 2043.94 854.942C2043.92 844.009 2044.11 835.859 2058.96 836.08C2163.92 837.655 2268.99 832.538 2373.85 838.967C2424.19 842.051 2471.8 857.197 2514.8 884.388C2565.34 916.351 2596.5 961.355 2601.16 1021.79C2604.61 1066.34 2603.19 1111.11 2600.74 1155.7C2599.06 1186.29 2581.73 1209.89 2560.93 1230.87C2518.89 1273.28 2466.81 1299.95 2413.12 1323.82C2351.01 1351.43 2286.51 1372.2 2220.67 1388.67C2206.92 1392.11 2200.97 1397.73 2201.71 1412.18C2202.7 1431.27 2201.76 1450.46 2202.04 1469.6C2202.34 1490.66 2211.51 1505.92 2231.36 1514.71C2287.34 1539.49 2344.23 1537.45 2400.89 1518.99C2427.91 1510.2 2449.96 1488.53 2444.47 1454.38C2442.65 1443.07 2447.5 1435.77 2459.69 1433.29C2502.28 1424.64 2544.78 1415.58 2587.27 1406.48C2596.76 1404.44 2601.65 1407.05 2601.63 1417.43C2601.58 1445.84 2602.17 1474.26 2601.75 1502.67C2601.59 1513.81 2596.81 1523.91 2590.82 1533.41C2563.74 1576.29 2525.66 1606.2 2478.31 1622.37C2372.29 1658.57 2265.53 1658.28 2159.34 1622.48C2131.75 1613.18 2106.73 1598.3 2084.81 1578.68C2057.88 1554.57 2043.79 1525.44 2044.06 1488.42C2044.83 1384.58 2044.33 1280.74 2044.33 1176.9H2044.07Z" fill="#231F20"/>
<path d="M846.746 1237.92H845.938C845.938 1309.79 846.029 1381.66 845.9 1453.53C845.829 1494.6 858.221 1512.58 897.942 1524.37C947.304 1539.02 996.563 1536.4 1044.66 1518.73C1082.13 1504.98 1091.4 1490.78 1090.22 1450.78C1086.03 1308.79 1088.37 1166.81 1090.36 1024.82C1090.98 981.384 1078.83 964.805 1036.52 954.976C988.167 943.747 939.65 946.509 891.963 958.451C858.434 966.847 846.725 984.434 846.738 1018.83C846.763 1091.86 846.746 1164.89 846.746 1237.92ZM689.821 1178.49C689.821 1070.58 689.988 962.664 689.6 854.755C689.554 841.755 692.779 835.593 706.967 835.809C808.471 837.334 910.046 833.747 1011.49 838.855C1057.62 841.18 1102.17 852.309 1143.18 874.263C1206.26 908.022 1243.08 959.226 1244.9 1032.55C1248.78 1188.01 1246.54 1343.49 1246.8 1498.96C1246.86 1539.06 1224.04 1567.51 1192.91 1589.51C1145.86 1622.76 1092.54 1639.82 1035.68 1645.11C960.75 1652.09 886.263 1651.51 813.825 1626.5C774.646 1612.97 740.296 1592.55 713.204 1560.71C697.971 1542.81 689.808 1522.64 689.875 1498.75C690.154 1391.99 689.996 1285.24 689.996 1178.49H689.821Z" fill="#231F20"/>
<path d="M3371.91 1242.43C3371.91 1317.28 3372.32 1392.12 3371.68 1466.96C3371.47 1491.48 3381.14 1508.05 3403.6 1517.4C3464.2 1542.66 3524.98 1538.18 3585.16 1516.8C3606.41 1509.25 3615.11 1490.16 3616.84 1468.63C3617.81 1456.56 3618.02 1444.08 3616.01 1432.23C3613.64 1418.26 3618.62 1414.03 3631.79 1412.11C3667.32 1406.92 3702.61 1400.12 3738.07 1394.38C3747.62 1392.83 3757.54 1382.01 3765.39 1388.08C3774.16 1394.87 3770.27 1408.72 3770.7 1419.41C3771.91 1450.08 3773.76 1480.78 3769.35 1511.47C3767.37 1525.21 3762.15 1536.87 3753.92 1547.7C3719.05 1593.66 3672.34 1621.56 3616.86 1633.7C3521.16 1654.64 3425.93 1656.51 3333.11 1618.98C3303.89 1607.17 3276.84 1591.42 3253.91 1569.45C3229.34 1545.92 3216.39 1518.1 3217.04 1482.86C3219.75 1335.53 3221.05 1188.17 3217.8 1040.81C3216.19 968.063 3249.85 915.492 3311.43 879.834C3360.25 851.567 3414.33 841.45 3469.84 838.738C3551.01 834.767 3632.24 836.921 3713.44 838.634C3723.3 838.842 3733.23 839.259 3743.01 838.375C3769.88 835.959 3770.51 832.446 3770.28 864.175C3769.8 930.309 3768.83 996.446 3769.09 1062.58C3769.16 1077.47 3764.5 1080.77 3750.21 1080.45C3710.79 1079.54 3671.31 1079.87 3631.9 1081.08C3619.25 1081.45 3615.36 1077.74 3615.94 1065.68C3616.74 1048.89 3616.18 1032.03 3616.61 1015.22C3617.17 993.78 3607.83 977.575 3588.93 968.775C3525.79 939.363 3462.14 939.988 3399.34 969.671C3380.05 978.788 3371.36 995.65 3371.53 1017.91C3372.1 1092.75 3371.74 1167.59 3371.74 1242.43H3371.91Z" fill="#919395"/>
<path d="M4286.5 1209.79C4286.5 1129.16 4286.17 1048.53 4286.79 967.909C4286.92 951.667 4283.17 944.813 4265.42 946.913C4248.84 948.871 4231.84 947.654 4215.04 947.525C4204.54 947.446 4199.75 945.496 4201.21 931.396C4203.96 905 4202.59 878.113 4201.88 851.458C4201.54 839.325 4205.67 834.45 4217.75 834.996C4233.42 835.7 4249.17 834.617 4264.71 836.063C4281.67 837.642 4288.21 832.9 4287.67 814.421C4286.29 768.058 4287.67 721.617 4286.75 675.229C4286.46 661 4291.38 656.767 4304.79 657.446C4345.34 659.5 4385.92 661.692 4426.5 658.442C4439.59 657.392 4444.42 664.462 4443.17 676.608C4438.17 724.637 4444.67 772.758 4441.96 820.825C4441.13 835.333 4452.46 835.288 4462.59 835.308C4520.59 835.413 4578.59 835.429 4636.59 835.433C4665.71 835.433 4665.79 835.396 4665.96 865.217C4666.09 887.258 4665.38 909.321 4666.13 931.338C4666.59 944.554 4661.34 948.046 4648.71 947.921C4587.21 947.321 4525.71 948.013 4464.25 947.154C4448.75 946.942 4443.42 950.708 4443.46 967.183C4443.96 1129.59 4443.75 1292.01 4443.38 1454.42C4443.34 1471.36 4450.29 1483.31 4463.88 1492.1C4479.29 1502.08 4496.17 1507.4 4514.67 1507.75C4537.29 1508.18 4559.88 1509.31 4582.5 1509.48C4592.46 1509.56 4597.3 1512.31 4597 1523.38C4596.21 1553.53 4596.25 1583.7 4596.09 1613.86C4596.05 1621.54 4594.8 1627.73 4585.13 1628C4527.25 1629.65 4469.17 1635.05 4412.42 1617.74C4333.04 1593.51 4288.34 1534.56 4286.34 1449.93C4285.38 1409.93 4286.13 1369.89 4286.13 1329.86V1209.79H4286.5Z" fill="#919395"/>
<path d="M2732.31 1232.69C2732.22 1109.18 2734.74 985.667 2731.11 862.176C2730.39 837.592 2732.82 836.105 2757.64 836.326C2857.36 837.221 2957.09 837.876 3056.83 838.276C3068.94 838.326 3081.09 836.513 3093.18 835.151C3104.36 833.892 3108.97 837.005 3103.44 848.463C3089 878.376 3069.38 904.988 3050.08 931.763C3044.9 938.951 3036.39 939.48 3027.91 938.951C2996.29 936.967 2965.54 942.126 2935.45 951.421C2900.02 962.363 2888.33 978.651 2888.34 1016.68C2888.35 1210.36 2888.45 1404.04 2888.43 1597.72C2888.43 1633.76 2892.08 1629.81 2855.53 1629.95C2821.89 1630.08 2788.26 1630.01 2754.63 1629.97C2732.19 1629.95 2730.29 1629.18 2731.08 1606.66C2734.71 1504.03 2729.96 1401.41 2732.24 1298.79C2732.73 1276.77 2732.31 1254.73 2732.31 1232.69Z" fill="#231F20"/>
<path d="M3924.87 1232.58C3924.87 1109.09 3924.86 985.609 3924.88 862.125C3924.89 838.704 3924.96 838.671 3949.04 838.696C3986.72 838.733 4024.41 839.229 4062.09 838.642C4074.88 838.442 4079.06 842.483 4079.02 855.55C4078.43 1107.15 4078.14 1358.76 4078.26 1610.36C4078.27 1624.71 4072.95 1627.95 4059.97 1627.71C4021.72 1627.02 3983.42 1626.53 3945.2 1627.6C3928.71 1628.05 3923.62 1623.5 3923.72 1606.5C3924.43 1481.86 3924.1 1357.22 3924.1 1232.58H3924.87Z" fill="#919395"/>
<path fill-rule="evenodd" clip-rule="evenodd" d="M6080.34 25.208C5936.88 -18.8004 5772.84 1.84964 5639.46 106.008C5478.92 231.387 5415.17 427.529 5470.8 614.55C5496.21 699.925 5542.21 772.888 5608.38 832.321C5687 902.892 5744.34 988.596 5790.13 1082.64C5867.05 1240.46 5903 1408.01 5908.34 1582.92C5908.34 1603.21 5907.67 1623.53 5908.59 1643.78C5909.34 1661.19 5924.67 1678.36 5937.5 1678.41C5949.8 1678.45 5960.3 1664.52 5962.38 1645.13C5962.75 1641.68 5962.63 1638.18 5962.75 1634.7C5965.55 1536.6 5973.42 1438.93 5994.59 1342.95C6014.3 1253.63 6042.17 1168.99 6080.34 1089.79V25.208Z" fill="url(#paint0_linear_298_14)"/>
<path d="M6100.25 393.888C6084.05 393.888 6068.42 396.525 6053.8 401.288C6075 375.363 6087.75 342.254 6087.75 306.159C6087.75 223.075 6020.38 155.725 5937.3 155.725C5854.21 155.725 5786.88 223.075 5786.88 306.154C5786.88 342.254 5799.63 375.363 5820.8 401.284C5806.17 396.521 5790.55 393.879 5774.34 393.879C5691.25 393.879 5623.92 461.229 5623.92 544.305C5623.92 627.384 5691.25 694.738 5774.34 694.738C5837.71 694.738 5891.84 655.471 5914 599.955C5894.67 707.076 5849.55 795.038 5849.55 795.038H6025.05C6025.05 795.038 5979.46 707.555 5960.3 599.075C5982.17 655.042 6036.55 694.742 6100.25 694.742C6183.34 694.742 6250.67 627.384 6250.67 544.309C6250.71 461.23 6183.34 393.888 6100.25 393.888Z" fill="white"/>
</g>
<defs>
<linearGradient id="paint0_linear_298_14" x1="5451.05" y1="840.921" x2="6080.32" y2="840.921" gradientUnits="userSpaceOnUse">
<stop stop-color="#221E1F"/>
<stop offset="0.1" stop-color="#737374"/>
<stop offset="0.3" stop-color="#696969"/>
<stop offset="0.7" stop-color="#272727"/>
<stop offset="1" stop-color="#030404"/>
</linearGradient>
<clipPath id="clip0_298_14">
<rect width="6425" height="1846" fill="white"/>
</clipPath>
</defs>
</svg>
