<svg width="176" height="72" viewBox="0 0 176 72" fill="none" xmlns="http://www.w3.org/2000/svg">
<path d="M66.6805 49.3414C63.5818 49.3414 61.1648 48.4841 59.4295 46.7695C57.7148 45.0548 56.8575 42.6069 56.8575 39.4255V27.2785H61.8775V39.2396C61.8775 43.1233 63.4888 45.0652 66.7115 45.0652C68.2815 45.0652 69.4797 44.6004 70.306 43.6708C71.1323 42.7205 71.5455 41.2434 71.5455 39.2396V27.2785H76.5034V39.4255C76.5034 42.6069 75.6358 45.0548 73.9005 46.7695C72.1859 48.4841 69.7792 49.3414 66.6805 49.3414Z" fill="black"/>
<path d="M78.9541 38.31H87.7235V42.1834H78.9541V38.31Z" fill="black"/>
<path d="M93.6919 31.3688H86.7508V27.2785H105.653V31.3688H98.7118V48.9696H93.6919V31.3688Z" fill="black"/>
<path d="M122.896 32.2984V48.9696H118.31V46.9864C117.669 47.7094 116.905 48.2672 116.017 48.6597C115.128 49.0315 114.168 49.2175 113.135 49.2175C110.945 49.2175 109.21 48.5874 107.929 47.3272C106.648 46.0671 106.008 44.1975 106.008 41.7186V32.2984H110.842V41.0058C110.842 43.6914 111.968 45.0342 114.219 45.0342C115.376 45.0342 116.306 44.6623 117.008 43.9186C117.71 43.1543 118.062 42.0284 118.062 40.541V32.2984H122.896Z" fill="black"/>
<path d="M130.442 34.4985C131.02 33.6929 131.795 33.0834 132.766 32.6703C133.757 32.2571 134.894 32.0505 136.174 32.0505V36.5127C135.637 36.4714 135.276 36.4507 135.09 36.4507C133.706 36.4507 132.621 36.8432 131.836 37.6282C131.051 38.3926 130.659 39.5494 130.659 41.0988V48.9696H125.825V32.2984H130.442V34.4985Z" fill="black"/>
<path d="M147.632 32.0505C149.698 32.0505 151.361 32.6703 152.621 33.9098C153.902 35.1493 154.542 36.9878 154.542 39.4255V48.9696H149.708V40.1692C149.708 38.8471 149.419 37.8658 148.841 37.2254C148.262 36.5643 147.426 36.2338 146.331 36.2338C145.112 36.2338 144.141 36.616 143.418 37.3803C142.695 38.124 142.333 39.2396 142.333 40.727V48.9696H137.499V32.2984H142.116V34.2506C142.757 33.5483 143.552 33.0111 144.503 32.6393C145.453 32.2468 146.496 32.0505 147.632 32.0505Z" fill="black"/>
<path fill-rule="evenodd" clip-rule="evenodd" d="M35.2619 21.6411C36.0863 20.8167 37.4228 20.8167 38.2472 21.6411L45.967 29.3609L38.2121 36.7633C37.3688 37.5682 36.0326 37.5372 35.2276 36.6939C34.4226 35.8506 34.4537 34.5144 35.297 33.7094L37.6779 31.4367H32.5327C28.4134 31.4367 25.0741 34.776 25.0741 38.8953C25.0741 43.0145 28.4134 46.3538 32.5327 46.3538H42.9466C44.1124 46.3538 45.0575 47.2989 45.0575 48.4647C45.0575 49.6306 44.1124 50.5757 42.9466 50.5757H32.5327C26.0818 50.5757 20.8523 45.3462 20.8523 38.8953C20.8523 32.4443 26.0818 27.2148 32.5327 27.2148H37.8503L35.2619 24.6264C34.4375 23.802 34.4375 22.4655 35.2619 21.6411Z" fill="black"/>
</svg>
