<svg width="270" height="75" viewBox="0 0 270 75" fill="none" xmlns="http://www.w3.org/2000/svg">
<path d="M63.868 51.26V22.2441H69.1738L82.8113 42.6796V22.2441H88.117V51.26H82.8113L69.1738 30.8659V51.26H63.868Z" fill="black"/>
<path d="M101.535 51.7574C99.4624 51.7574 97.6247 51.3152 96.0219 50.4309C94.4191 49.5466 93.1618 48.3031 92.2498 46.7003C91.3379 45.0975 90.882 43.2461 90.882 41.1459C90.882 39.018 91.3241 37.1251 92.2084 35.467C93.1203 33.809 94.3639 32.524 95.939 31.6121C97.5418 30.6725 99.4209 30.2027 101.576 30.2027C103.594 30.2027 105.376 30.6449 106.924 31.5292C108.471 32.4135 109.673 33.6294 110.53 35.1769C111.414 36.6968 111.856 38.3963 111.856 40.2754C111.856 40.5794 111.842 40.8972 111.815 41.2288C111.815 41.5604 111.801 41.9058 111.773 42.265H96.1463C96.2568 43.8678 96.8095 45.1252 97.8043 46.0371C98.8268 46.949 100.057 47.405 101.493 47.405C102.571 47.405 103.469 47.1701 104.188 46.7003C104.934 46.2029 105.487 45.5673 105.846 44.7936H111.235C110.848 46.0924 110.198 47.2806 109.286 48.3584C108.402 49.4085 107.297 50.2375 105.97 50.8455C104.671 51.4534 103.193 51.7574 101.535 51.7574ZM101.576 34.5137C100.278 34.5137 99.1308 34.8867 98.1359 35.6328C97.1411 36.3513 96.5055 37.4567 96.2292 38.9489H106.468C106.385 37.5949 105.887 36.5171 104.975 35.7157C104.063 34.9144 102.93 34.5137 101.576 34.5137Z" fill="black"/>
<path d="M110.881 51.26L118.342 40.9801L110.881 30.7001H116.56L121.783 37.9956L126.964 30.7001H132.685L125.182 40.9801L132.685 51.26H126.964L121.783 43.9645L116.56 51.26H110.881Z" fill="black"/>
<path d="M143.153 51.26C140.998 51.26 139.27 50.7349 137.972 49.6848C136.673 48.6347 136.023 46.7694 136.023 44.0889V35.1354H132.5V30.7001H136.023L136.645 25.1871H141.329V30.7001H146.884V35.1354H141.329V44.1303C141.329 45.1252 141.536 45.816 141.951 46.2029C142.393 46.5622 143.139 46.7418 144.189 46.7418H146.759V51.26H143.153Z" fill="black"/>
<path d="M149.366 51.26V30.7001H154.05L154.506 33.4774C155.17 32.4825 156.04 31.695 157.118 31.1147C158.223 30.5067 159.494 30.2027 160.931 30.2027C164.109 30.2027 166.361 31.4324 167.688 33.8919C168.434 32.7589 169.429 31.8608 170.672 31.1976C171.944 30.5343 173.325 30.2027 174.818 30.2027C177.498 30.2027 179.557 31.0041 180.994 32.6069C182.431 34.2097 183.149 36.5586 183.149 39.6536V51.26H177.843V40.151C177.843 38.3824 177.498 37.0284 176.807 36.0888C176.144 35.1492 175.108 34.6795 173.698 34.6795C172.261 34.6795 171.101 35.2045 170.216 36.2546C169.36 37.3047 168.931 38.7693 168.931 40.6484V51.26H163.626V40.151C163.626 38.3824 163.28 37.0284 162.589 36.0888C161.899 35.1492 160.835 34.6795 159.398 34.6795C157.988 34.6795 156.841 35.2045 155.957 36.2546C155.101 37.3047 154.672 38.7693 154.672 40.6484V51.26H149.366Z" fill="black"/>
<path d="M195.979 51.7574C193.99 51.7574 192.193 51.3014 190.591 50.3895C189.016 49.4776 187.758 48.2202 186.819 46.6174C185.907 44.987 185.451 43.1079 185.451 40.9801C185.451 38.8522 185.921 36.9869 186.86 35.3841C187.8 33.7537 189.057 32.4825 190.632 31.5706C192.235 30.6587 194.031 30.2027 196.021 30.2027C197.983 30.2027 199.751 30.6587 201.327 31.5706C202.929 32.4825 204.187 33.7537 205.099 35.3841C206.038 36.9869 206.508 38.8522 206.508 40.9801C206.508 43.1079 206.038 44.987 205.099 46.6174C204.187 48.2202 202.929 49.4776 201.327 50.3895C199.724 51.3014 197.941 51.7574 195.979 51.7574ZM195.979 47.1563C197.361 47.1563 198.563 46.6451 199.586 45.6226C200.608 44.5725 201.119 43.025 201.119 40.9801C201.119 38.9351 200.608 37.4014 199.586 36.379C198.563 35.3289 197.375 34.8038 196.021 34.8038C194.611 34.8038 193.396 35.3289 192.373 36.379C191.378 37.4014 190.881 38.9351 190.881 40.9801C190.881 43.025 191.378 44.5725 192.373 45.6226C193.396 46.6451 194.598 47.1563 195.979 47.1563Z" fill="black"/>
<path d="M213.722 51.26L206.178 30.7001H211.732L216.955 46.2444L222.178 30.7001H227.732L220.147 51.26H213.722Z" fill="black"/>
<path d="M237.984 51.7574C235.911 51.7574 234.074 51.3152 232.471 50.4309C230.868 49.5466 229.611 48.3031 228.699 46.7003C227.787 45.0975 227.331 43.2461 227.331 41.1459C227.331 39.018 227.773 37.1251 228.658 35.467C229.569 33.809 230.813 32.524 232.388 31.6121C233.991 30.6725 235.87 30.2027 238.026 30.2027C240.043 30.2027 241.825 30.6449 243.373 31.5292C244.92 32.4135 246.122 33.6294 246.979 35.1769C247.863 36.6968 248.305 38.3963 248.305 40.2754C248.305 40.5794 248.292 40.8972 248.264 41.2288C248.264 41.5604 248.25 41.9058 248.223 42.265H232.595C232.706 43.8678 233.259 45.1252 234.253 46.0371C235.276 46.949 236.506 47.405 237.943 47.405C239.02 47.405 239.918 47.1701 240.637 46.7003C241.383 46.2029 241.936 45.5673 242.295 44.7936H247.684C247.297 46.0924 246.647 47.2806 245.735 48.3584C244.851 49.4085 243.746 50.2375 242.419 50.8455C241.121 51.4534 239.642 51.7574 237.984 51.7574ZM238.026 34.5137C236.727 34.5137 235.58 34.8867 234.585 35.6328C233.59 36.3513 232.955 37.4567 232.678 38.9489H242.917C242.834 37.5949 242.336 36.5171 241.425 35.7157C240.513 34.9144 239.38 34.5137 238.026 34.5137Z" fill="black"/>
<path d="M37.7053 21.68V34.797C37.7053 36.2942 36.4917 37.5078 34.9945 37.5078L21.8775 37.5078L21.8775 32.0862H28.4428L21.5448 25.1883L25.3784 21.3546L32.2837 28.2599L32.2837 21.68L37.7053 21.68Z" fill="black"/>
<path d="M53.7184 37.6937H40.6014C39.1043 37.6937 37.8906 38.9074 37.8906 40.4045V53.5215H43.3122L43.3122 46.9557L50.2107 53.8542L54.0443 50.0205L47.1392 43.1153H53.7184V37.6937Z" fill="black"/>
</svg>
