<svg width="187" height="78" viewBox="0 0 187 78" fill="none" xmlns="http://www.w3.org/2000/svg">
<path d="M74.2331 50.8751C71.8872 50.8751 69.8374 50.342 68.0839 49.2757C66.3304 48.2093 64.9679 46.7283 63.9964 44.8326C63.0248 42.9133 62.5391 40.6858 62.5391 38.1504C62.5391 35.5912 63.0367 33.3401 64.0319 31.397C65.0508 29.4302 66.4845 27.9018 68.3327 26.8118C70.2047 25.6981 72.4203 25.1412 74.9795 25.1412C77.8941 25.1412 80.3111 25.8403 82.2305 27.2383C84.1499 28.6364 85.3939 30.5676 85.9626 33.032H80.8798C80.5007 31.8709 79.8135 30.9705 78.8183 30.3307C77.823 29.6672 76.5434 29.3354 74.9795 29.3354C72.4914 29.3354 70.572 30.1292 69.2214 31.7169C67.8707 33.2808 67.1953 35.4372 67.1953 38.1859C67.1953 40.9346 67.8588 43.0673 69.1858 44.5838C70.5365 46.0767 72.3611 46.8231 74.6596 46.8231C76.9107 46.8231 78.605 46.2189 79.7424 45.0104C80.9035 43.7782 81.6025 42.1668 81.8395 40.1764H75.5482V36.7641H86.4247V50.4486H82.2305L81.875 47.1786C81.0694 48.3634 80.0623 49.2757 78.8538 49.9155C77.6453 50.5552 76.1051 50.8751 74.2331 50.8751Z" fill="black"/>
<path d="M88.9639 50.4486V24.8569H93.5135V50.4486H88.9639Z" fill="black"/>
<path d="M104.845 50.8751C103.138 50.8751 101.598 50.4842 100.224 49.7022C98.8732 48.9202 97.795 47.842 96.9893 46.4677C96.2074 45.0696 95.8164 43.4583 95.8164 41.6337C95.8164 39.8091 96.2192 38.2096 97.0249 36.8352C97.8305 35.4372 98.9087 34.3471 100.259 33.5652C101.634 32.7832 103.174 32.3922 104.88 32.3922C106.563 32.3922 108.079 32.7832 109.43 33.5652C110.804 34.3471 111.882 35.4372 112.664 36.8352C113.47 38.2096 113.873 39.8091 113.873 41.6337C113.873 43.4583 113.47 45.0696 112.664 46.4677C111.882 47.842 110.804 48.9202 109.43 49.7022C108.055 50.4842 106.527 50.8751 104.845 50.8751ZM104.845 46.9297C106.029 46.9297 107.06 46.4914 107.937 45.6146C108.814 44.7142 109.252 43.3872 109.252 41.6337C109.252 39.8802 108.814 38.565 107.937 37.6883C107.06 36.7878 106.041 36.3376 104.88 36.3376C103.672 36.3376 102.629 36.7878 101.752 37.6883C100.899 38.565 100.473 39.8802 100.473 41.6337C100.473 43.3872 100.899 44.7142 101.752 45.6146C102.629 46.4914 103.66 46.9297 104.845 46.9297Z" fill="black"/>
<path d="M123.45 50.8751C121.886 50.8751 120.512 50.6263 119.327 50.1287C118.142 49.6074 117.194 48.8965 116.483 47.9961C115.772 47.0956 115.346 46.053 115.204 44.8682H119.789C119.931 45.5554 120.31 46.1478 120.926 46.6454C121.566 47.1193 122.384 47.3563 123.379 47.3563C124.374 47.3563 125.097 47.1549 125.547 46.752C126.021 46.3492 126.258 45.8871 126.258 45.3658C126.258 44.6075 125.926 44.0981 125.263 43.8374C124.599 43.5531 123.675 43.2806 122.49 43.0199C121.732 42.854 120.962 42.6526 120.18 42.4157C119.398 42.1787 118.675 41.8825 118.012 41.527C117.372 41.1479 116.851 40.674 116.448 40.1053C116.045 39.5129 115.844 38.7902 115.844 37.9371C115.844 36.3732 116.46 35.058 117.692 33.9917C118.948 32.9254 120.701 32.3922 122.952 32.3922C125.038 32.3922 126.696 32.878 127.929 33.8495C129.184 34.8211 129.931 36.1599 130.168 37.866H125.867C125.606 36.5627 124.623 35.9111 122.917 35.9111C122.064 35.9111 121.4 36.077 120.926 36.4087C120.476 36.7404 120.251 37.1551 120.251 37.6527C120.251 38.1741 120.595 38.5887 121.282 38.8968C121.969 39.2048 122.881 39.4892 124.019 39.7498C125.251 40.0342 126.376 40.3541 127.395 40.7095C128.438 41.0413 129.267 41.5507 129.883 42.2379C130.5 42.9014 130.808 43.8611 130.808 45.117C130.831 46.207 130.547 47.1904 129.955 48.0672C129.362 48.9439 128.509 49.6311 127.395 50.1287C126.282 50.6263 124.967 50.8751 123.45 50.8751Z" fill="black"/>
<path d="M140.347 50.8751C138.783 50.8751 137.409 50.6263 136.224 50.1287C135.039 49.6074 134.092 48.8965 133.381 47.9961C132.67 47.0956 132.243 46.053 132.101 44.8682H136.686C136.828 45.5554 137.208 46.1478 137.824 46.6454C138.463 47.1193 139.281 47.3563 140.276 47.3563C141.271 47.3563 141.994 47.1549 142.444 46.752C142.918 46.3492 143.155 45.8871 143.155 45.3658C143.155 44.6075 142.824 44.0981 142.16 43.8374C141.497 43.5531 140.572 43.2806 139.388 43.0199C138.629 42.854 137.859 42.6526 137.077 42.4157C136.295 42.1787 135.573 41.8825 134.909 41.527C134.269 41.1479 133.748 40.674 133.345 40.1053C132.942 39.5129 132.741 38.7902 132.741 37.9371C132.741 36.3732 133.357 35.058 134.589 33.9917C135.845 32.9254 137.599 32.3922 139.85 32.3922C141.935 32.3922 143.594 32.878 144.826 33.8495C146.082 34.8211 146.828 36.1599 147.065 37.866H142.764C142.504 36.5627 141.52 35.9111 139.814 35.9111C138.961 35.9111 138.298 36.077 137.824 36.4087C137.373 36.7404 137.148 37.1551 137.148 37.6527C137.148 38.1741 137.492 38.5887 138.179 38.8968C138.866 39.2048 139.779 39.4892 140.916 39.7498C142.148 40.0342 143.274 40.3541 144.293 40.7095C145.335 41.0413 146.165 41.5507 146.781 42.2379C147.397 42.9014 147.705 43.8611 147.705 45.117C147.729 46.207 147.444 47.1904 146.852 48.0672C146.259 48.9439 145.406 49.6311 144.293 50.1287C143.179 50.6263 141.864 50.8751 140.347 50.8751Z" fill="black"/>
<path d="M151.225 58.2683L155.312 49.2757H154.246L147.386 32.8187H152.326L157.267 45.2236L162.421 32.8187H167.255L156.059 58.2683H151.225Z" fill="black"/>
<path d="M29.0503 47.6007L46.9833 29.6677L44.0343 26.7187L26.1014 44.6517L29.0503 47.6007Z" fill="black"/>
<path d="M36.1401 29.6677L29.0503 36.7575L26.1014 33.8085L33.1912 26.7187L36.1401 29.6677Z" fill="black"/>
<path d="M39.8935 47.6007L46.9833 40.5109L44.0343 37.5619L36.9446 44.6517L39.8935 47.6007Z" fill="black"/>
<path fill-rule="evenodd" clip-rule="evenodd" d="M19.235 54.4672V19.4353H54.2668V54.4672H19.235ZM23.4054 23.6058H50.0964V50.2967H23.4054V23.6058Z" fill="black"/>
</svg>
