<svg width="152" height="55" viewBox="0 0 152 55" fill="none" xmlns="http://www.w3.org/2000/svg">
<path d="M68.5399 38.5009C66.6778 38.5009 65.079 38.1717 63.7435 37.5134C62.4081 36.8551 61.3171 35.9993 60.4707 34.9459C59.6431 33.8926 59.0318 32.7452 58.6368 31.5038C58.2418 30.2624 58.0443 29.068 58.0443 27.9206V27.2999C58.0443 26.0209 58.2418 24.7607 58.6368 23.5193C59.0506 22.2779 59.6807 21.1493 60.5271 20.1336C61.3736 19.1179 62.4457 18.3091 63.7435 17.7072C65.0602 17.0865 66.612 16.7761 68.3988 16.7761C70.261 16.7761 71.8786 17.1147 73.2516 17.7918C74.6435 18.4502 75.7533 19.3906 76.5809 20.6132C77.4085 21.817 77.907 23.2277 78.0762 24.8453H74.0416C73.8912 23.9049 73.5526 23.1149 73.0259 22.4753C72.5181 21.817 71.8692 21.328 71.0792 21.0082C70.2892 20.6697 69.3957 20.5004 68.3988 20.5004C67.3831 20.5004 66.4803 20.6791 65.6903 21.0364C64.9003 21.375 64.242 21.864 63.7153 22.5036C63.1887 23.1431 62.7843 23.8955 62.5021 24.7607C62.2388 25.6259 62.1071 26.5852 62.1071 27.6385C62.1071 28.6542 62.2388 29.5947 62.5021 30.4599C62.7843 31.3251 63.1981 32.0869 63.7435 32.7452C64.289 33.3848 64.9567 33.8832 65.7467 34.2406C66.5555 34.598 67.4866 34.7766 68.5399 34.7766C70.0823 34.7766 71.3801 34.4005 72.4334 33.6481C73.5056 32.8769 74.1545 31.8048 74.3802 30.4317H78.4148C78.2267 31.8988 77.7283 33.2437 76.9195 34.4663C76.1107 35.6889 75.0009 36.667 73.5902 37.4005C72.1795 38.1341 70.4961 38.5009 68.5399 38.5009Z" fill="black"/>
<path d="M80.2721 37.9648V17.3686H84.1938V37.9648H80.2721ZM78.3535 20.3029V17.3686H84.1938V20.3029H78.3535Z" fill="black"/>
<path d="M94.6242 38.5009C93.2699 38.5009 92.0755 38.2846 91.041 37.852C90.0065 37.4194 89.1319 36.8363 88.4171 36.1027C87.7023 35.3503 87.1569 34.5039 86.7807 33.5634C86.4233 32.623 86.2446 31.6449 86.2446 30.6292V30.0367C86.2446 28.9834 86.4327 27.9865 86.8089 27.046C87.2039 26.0867 87.7588 25.2403 88.4735 24.5068C89.2071 23.7544 90.0911 23.1713 91.1256 22.7575C92.1602 22.3249 93.3263 22.1086 94.6242 22.1086C95.922 22.1086 97.0882 22.3249 98.1227 22.7575C99.1572 23.1713 100.032 23.7544 100.747 24.5068C101.48 25.2403 102.035 26.0867 102.411 27.046C102.787 27.9865 102.976 28.9834 102.976 30.0367V30.6292C102.976 31.6449 102.787 32.623 102.411 33.5634C102.054 34.5039 101.518 35.3503 100.803 36.1027C100.088 36.8363 99.2137 37.4194 98.1791 37.852C97.1446 38.2846 95.9596 38.5009 94.6242 38.5009ZM94.6242 35.1434C95.5835 35.1434 96.3923 34.9365 97.0506 34.5227C97.7089 34.0901 98.2074 33.5164 98.5459 32.8017C98.8845 32.0681 99.0538 31.2405 99.0538 30.3188C99.0538 29.3784 98.8751 28.5508 98.5177 27.836C98.1791 27.1024 97.6713 26.5288 96.9942 26.115C96.3358 25.6823 95.5458 25.466 94.6242 25.466C93.7025 25.466 92.9031 25.6823 92.226 26.115C91.5677 26.5288 91.0598 27.1024 90.7024 27.836C90.3451 28.5508 90.1664 29.3784 90.1664 30.3188C90.1664 31.2405 90.3357 32.0681 90.6742 32.8017C91.0316 33.5164 91.5394 34.0901 92.1978 34.5227C92.8561 34.9365 93.6649 35.1434 94.6242 35.1434Z" fill="black"/>
<path d="M110.218 38.4445C108.45 38.4445 107.077 37.8614 106.099 36.6952C105.14 35.529 104.66 33.7986 104.66 31.5038V22.6164H108.582V31.8424C108.582 32.7829 108.845 33.5352 109.372 34.0995C109.899 34.645 110.613 34.9177 111.516 34.9177C112.419 34.9177 113.153 34.6262 113.717 34.0431C114.3 33.46 114.592 32.67 114.592 31.6731V22.6164H118.513V37.9648H115.41V31.4474H115.72C115.72 32.9898 115.523 34.2782 115.128 35.3127C114.733 36.3472 114.14 37.1278 113.35 37.6545C112.56 38.1811 111.573 38.4445 110.388 38.4445H110.218Z" fill="black"/>
<path d="M127.956 38.4727C126.884 38.4727 125.896 38.2752 124.993 37.8802C124.09 37.4852 123.31 36.9303 122.651 36.2156C121.993 35.5008 121.485 34.6732 121.128 33.7327C120.771 32.7735 120.592 31.7389 120.592 30.6292V30.0367C120.592 28.9458 120.761 27.9206 121.1 26.9614C121.457 26.0021 121.946 25.1651 122.567 24.4503C123.206 23.7356 123.968 23.1807 124.852 22.7857C125.755 22.3719 126.752 22.165 127.843 22.165C129.047 22.165 130.1 22.4283 131.003 22.955C131.924 23.4628 132.658 24.234 133.203 25.2685C133.749 26.303 134.05 27.6009 134.106 29.1621L132.95 27.8078V17.3686H136.871V37.9648H133.768V31.4474H134.445C134.388 33.0086 134.069 34.3158 133.486 35.3691C132.903 36.4037 132.131 37.1842 131.172 37.7109C130.232 38.2187 129.159 38.4727 127.956 38.4727ZM128.83 35.1716C129.602 35.1716 130.307 35.0024 130.946 34.6638C131.586 34.3064 132.094 33.7986 132.47 33.1402C132.865 32.4631 133.062 31.6731 133.062 30.7703V29.6417C133.062 28.7389 132.865 27.9865 132.47 27.3846C132.075 26.7639 131.558 26.2936 130.918 25.9739C130.279 25.6353 129.583 25.466 128.83 25.466C127.984 25.466 127.232 25.6729 126.573 26.0867C125.934 26.4817 125.426 27.046 125.05 27.7796C124.692 28.5131 124.514 29.369 124.514 30.347C124.514 31.3251 124.702 32.181 125.078 32.9145C125.454 33.6293 125.962 34.1841 126.601 34.5791C127.26 34.9741 128.003 35.1716 128.83 35.1716Z" fill="black"/>
<path d="M43.2689 40.1307C41.9139 40.1307 41.079 39.5052 39.715 38.7684C38.3511 38.0316 34.4062 35.0653 34.4062 31.3728C34.4062 28.8678 33.7605 26.8419 32.6609 25.2272C31.5694 23.625 30.0908 22.515 28.5525 21.7314C27.8113 21.3539 27.0399 21.0452 26.2718 20.79C25.824 20.6414 25.5642 20.1606 25.7584 19.7307C26.9898 17.0046 29.7322 15.108 32.9179 15.108C37.2543 15.108 40.7698 18.6233 40.7698 22.96C40.7698 23.8877 40.609 24.778 40.3135 25.6042C41.565 24.7607 43.073 24.2685 44.6957 24.2685C49.0322 24.2685 52.5477 27.7839 52.5477 32.1205C52.5477 37.3411 47.9602 40.1307 43.2689 40.1307Z" fill="black"/>
<path d="M14.5966 31.4662C14.5966 35.6051 17.3253 39.0537 20.9402 39.8157C21.4982 40.0195 22.1005 40.1307 22.729 40.1307H34.9286C35.3377 40.1307 35.5158 39.5836 35.2035 39.3192C33.0714 37.5152 31.4869 34.9728 31.4869 31.3728C31.4869 29.3946 30.986 27.9539 30.248 26.8708C29.5017 25.7752 28.4519 24.9564 27.2275 24.3325C25.9916 23.703 24.6498 23.3021 23.3686 23.0178C23.0668 22.9797 22.7597 22.96 22.4485 22.96C18.1119 22.96 14.5966 26.7684 14.5966 31.4662Z" fill="black"/>
</svg>
