<svg width="206" height="80" viewBox="0 0 206 80" fill="none" xmlns="http://www.w3.org/2000/svg">
<path d="M69.841 30.8614C71.3918 30.8614 72.7342 31.1199 73.8682 31.6368C75.0188 32.1538 75.9026 32.8875 76.5196 33.838C77.1366 34.7885 77.4451 35.9141 77.4451 37.2148C77.4451 38.4989 77.1366 39.6245 76.5196 40.5917C75.9026 41.5422 75.0188 42.2759 73.8682 42.7928C72.7342 43.2931 71.3918 43.5432 69.841 43.5432H66.3141V48.3709H62.2619V30.8614H69.841ZM69.6159 40.2415C70.8332 40.2415 71.7587 39.983 72.3924 39.466C73.0261 38.9324 73.3429 38.182 73.3429 37.2148C73.3429 36.231 73.0261 35.4806 72.3924 34.9636C71.7587 34.43 70.8332 34.1632 69.6159 34.1632H66.3141V40.2415H69.6159Z" fill="black"/>
<path d="M82.5393 36.6895C83.0062 36.0392 83.6315 35.5473 84.4153 35.2137C85.2157 34.8802 86.1329 34.7135 87.1668 34.7135V38.3154C86.7332 38.2821 86.4414 38.2654 86.2913 38.2654C85.174 38.2654 84.2986 38.5822 83.6649 39.2159C83.0312 39.8329 82.7144 40.7667 82.7144 42.0174V48.3709H78.8123V34.9136H82.5393V36.6895Z" fill="black"/>
<path d="M94.5176 48.571C93.1002 48.571 91.8245 48.2791 90.6906 47.6955C89.5733 47.0952 88.6978 46.2697 88.0641 45.2192C87.4305 44.1686 87.1136 42.9763 87.1136 41.6422C87.1136 40.3082 87.4305 39.1159 88.0641 38.0653C88.6978 37.0147 89.5733 36.1976 90.6906 35.614C91.8245 35.0136 93.1002 34.7135 94.5176 34.7135C95.9351 34.7135 97.2024 35.0136 98.3197 35.614C99.437 36.1976 100.312 37.0147 100.946 38.0653C101.58 39.1159 101.897 40.3082 101.897 41.6422C101.897 42.9763 101.58 44.1686 100.946 45.2192C100.312 46.2697 99.437 47.0952 98.3197 47.6955C97.2024 48.2791 95.9351 48.571 94.5176 48.571ZM94.5176 45.3692C95.5182 45.3692 96.3353 45.0357 96.9689 44.3687C97.6193 43.685 97.9445 42.7762 97.9445 41.6422C97.9445 40.5083 97.6193 39.6078 96.9689 38.9408C96.3353 38.2571 95.5182 37.9152 94.5176 37.9152C93.5171 37.9152 92.6916 38.2571 92.0413 38.9408C91.3909 39.6078 91.0658 40.5083 91.0658 41.6422C91.0658 42.7762 91.3909 43.685 92.0413 44.3687C92.6916 45.0357 93.5171 45.3692 94.5176 45.3692Z" fill="black"/>
<path d="M119.588 30.8614V48.3709H116.261L107.531 37.7401V48.3709H103.529V30.8614H106.881L115.586 41.4921V30.8614H119.588Z" fill="black"/>
<path d="M127.633 34.7135C129.717 34.7135 131.318 35.2137 132.435 36.2143C133.553 37.1982 134.111 38.6906 134.111 40.6917V48.3709H130.459V46.695C129.726 47.9456 128.358 48.571 126.357 48.571C125.323 48.571 124.423 48.3959 123.656 48.0457C122.905 47.6955 122.33 47.2119 121.93 46.5949C121.529 45.9779 121.329 45.2775 121.329 44.4938C121.329 43.2431 121.796 42.2592 122.73 41.5422C123.681 40.8251 125.14 40.4666 127.108 40.4666H130.209C130.209 39.6161 129.951 38.9658 129.434 38.5155C128.917 38.0486 128.141 37.8152 127.108 37.8152C126.39 37.8152 125.682 37.9319 124.981 38.1653C124.298 38.3821 123.714 38.6823 123.23 39.0658L121.83 36.3394C122.563 35.8224 123.439 35.4222 124.456 35.1387C125.49 34.8552 126.549 34.7135 127.633 34.7135ZM127.333 45.9445C128 45.9445 128.592 45.7945 129.109 45.4943C129.626 45.1775 129.992 44.7189 130.209 44.1186V42.7428H127.533C125.932 42.7428 125.131 43.2681 125.131 44.3187C125.131 44.8189 125.323 45.2192 125.707 45.5193C126.107 45.8028 126.649 45.9445 127.333 45.9445Z" fill="black"/>
<path d="M145.072 47.7205C144.688 48.004 144.213 48.2208 143.646 48.3709C143.096 48.5043 142.512 48.571 141.895 48.571C140.294 48.571 139.052 48.1624 138.168 47.3453C137.301 46.5282 136.867 45.3275 136.867 43.7434V38.2154H134.791V35.2137H136.867V31.937H140.77V35.2137H144.121V38.2154H140.77V43.6933C140.77 44.2603 140.911 44.7022 141.195 45.019C141.495 45.3192 141.912 45.4693 142.445 45.4693C143.062 45.4693 143.588 45.3025 144.021 44.969L145.072 47.7205Z" fill="black"/>
<path d="M159.569 34.9136V48.3709H155.867V46.77C155.35 47.3536 154.733 47.8039 154.016 48.1207C153.299 48.4209 152.524 48.571 151.69 48.571C149.922 48.571 148.521 48.0624 147.487 47.0451C146.454 46.0279 145.937 44.5188 145.937 42.5177V34.9136H149.839V41.9424C149.839 44.1102 150.748 45.1941 152.565 45.1941C153.499 45.1941 154.249 44.894 154.816 44.2937C155.383 43.6767 155.667 42.7678 155.667 41.5672V34.9136H159.569Z" fill="black"/>
<path d="M165.66 36.6895C166.127 36.0392 166.753 35.5473 167.536 35.2137C168.337 34.8802 169.254 34.7135 170.288 34.7135V38.3154C169.854 38.2821 169.563 38.2654 169.412 38.2654C168.295 38.2654 167.42 38.5822 166.786 39.2159C166.152 39.8329 165.835 40.7667 165.835 42.0174V48.3709H161.933V34.9136H165.66V36.6895Z" fill="black"/>
<path d="M184.417 41.6922C184.417 41.7423 184.392 42.0925 184.342 42.7428H174.162C174.345 43.5766 174.779 44.2353 175.463 44.7189C176.146 45.2025 176.997 45.4443 178.014 45.4443C178.714 45.4443 179.331 45.3442 179.865 45.1441C180.415 44.9273 180.924 44.5938 181.391 44.1436L183.467 46.3948C182.2 47.8456 180.349 48.571 177.914 48.571C176.396 48.571 175.054 48.2791 173.887 47.6955C172.719 47.0952 171.819 46.2697 171.185 45.2192C170.552 44.1686 170.235 42.9763 170.235 41.6422C170.235 40.3248 170.543 39.1409 171.16 38.0903C171.794 37.0231 172.653 36.1976 173.737 35.614C174.837 35.0136 176.063 34.7135 177.414 34.7135C178.731 34.7135 179.923 34.997 180.991 35.5639C182.058 36.1309 182.892 36.948 183.492 38.0153C184.109 39.0658 184.417 40.2915 184.417 41.6922ZM177.439 37.6651C176.555 37.6651 175.813 37.9152 175.212 38.4155C174.612 38.9157 174.245 39.5994 174.112 40.4666H180.74C180.607 39.6161 180.24 38.9408 179.64 38.4405C179.04 37.9235 178.306 37.6651 177.439 37.6651Z" fill="black"/>
<path fill-rule="evenodd" clip-rule="evenodd" d="M40.0396 21.1102C39.445 20.7663 38.712 20.7663 38.1175 21.1102C33.8945 23.5531 31.0463 28.1237 31.0463 33.3618C31.0463 34.1084 31.1041 34.8414 31.2156 35.5566C28.3085 34.5694 25.1609 34.9286 22.5899 36.4101C21.9948 36.753 21.6283 37.3878 21.6288 38.0747C21.6319 41.6982 23.5143 45.2298 26.8855 47.1762C28.5394 48.1311 30.3445 48.5849 32.1252 48.5858C31.8543 49.3534 31.7069 50.1793 31.7069 51.0397C31.7069 55.1108 35.0072 58.411 39.0783 58.411C43.1493 58.411 46.4496 55.1108 46.4496 51.0397C46.4496 50.1774 46.3016 49.3498 46.0295 48.5807C47.7039 48.5279 49.3905 48.0731 50.9436 47.1764C54.3149 45.23 56.1973 41.6984 56.2003 38.0748C56.2009 37.388 55.8344 36.7532 55.2392 36.4102C52.7695 34.9871 49.7677 34.5996 46.9582 35.4463C47.0587 34.7661 47.1107 34.0701 47.1107 33.3618C47.1107 28.1237 44.2626 23.5531 40.0396 21.1102ZM34.8849 33.3618C34.8849 29.9603 36.5319 26.9417 39.0785 25.0628C41.6251 26.9417 43.2721 29.9603 43.2721 33.3618C43.2721 36.7633 41.6251 39.7819 39.0785 41.6609C36.5319 39.7819 34.8849 36.7633 34.8849 33.3618ZM46.6481 39.7362C48.4206 38.7129 50.4686 38.5938 52.2577 39.2414C51.9239 41.1145 50.7968 42.8287 49.0243 43.852C47.2518 44.8754 45.2038 44.9944 43.4147 44.3469C43.7485 42.4737 44.8756 40.7596 46.6481 39.7362ZM25.5715 39.2412C27.3605 38.5937 29.4086 38.7127 31.181 39.7361C32.9535 40.7594 34.0807 42.4736 34.4144 44.3467C32.6253 44.9943 30.5773 44.8752 28.8048 43.8519C27.0323 42.8285 25.9052 41.1144 25.5715 39.2412ZM35.5455 51.0397C35.5455 49.0886 37.1272 47.5069 39.0783 47.5069C41.0293 47.5069 42.611 49.0886 42.611 51.0397C42.611 52.9907 41.0293 54.5724 39.0783 54.5724C37.1272 54.5724 35.5455 52.9907 35.5455 51.0397Z" fill="black"/>
</svg>
