<svg width="194" height="79" viewBox="0 0 194 79" fill="none" xmlns="http://www.w3.org/2000/svg">
<path d="M89.8465 49.4448C88.529 49.4448 87.3033 49.2197 86.1693 48.7694C85.0519 48.3025 84.068 47.6521 83.2175 46.8182C82.3837 45.9844 81.7333 45.0172 81.2663 43.9165C80.7994 42.7992 80.5659 41.5984 80.5659 40.3143C80.5659 39.0302 80.7994 37.8378 81.2663 36.7372C81.7333 35.6198 82.3837 34.6526 83.2175 33.8354C84.0513 33.0182 85.0269 32.3845 86.1443 31.9342C87.2783 31.4673 88.504 31.2338 89.8215 31.2338C91.2223 31.2338 92.4648 31.459 93.5487 31.9092C94.4791 32.2898 95.3081 32.7896 96.0359 33.4084C96.2558 33.5954 96.2591 33.9283 96.056 34.1334L94.1771 36.0302C93.9706 36.2386 93.6339 36.2311 93.4109 36.0407C93.0277 35.7135 92.59 35.4454 92.0979 35.2362C91.4475 34.9527 90.6887 34.811 89.8215 34.811C89.0544 34.811 88.3456 34.9444 87.6952 35.2112C87.0615 35.4614 86.5112 35.8283 86.0442 36.3119C85.5939 36.7955 85.2354 37.3792 84.9686 38.063C84.7184 38.7467 84.5933 39.4972 84.5933 40.3143C84.5933 41.1482 84.7184 41.9069 84.9686 42.5907C85.2354 43.2744 85.5939 43.8581 86.0442 44.3418C86.5112 44.8254 87.0615 45.2006 87.6952 45.4674C88.3456 45.7343 89.0544 45.8677 89.8215 45.8677C90.722 45.8677 91.5058 45.7259 92.1729 45.4424C92.6715 45.2305 93.1188 44.9581 93.5149 44.6251C93.736 44.4392 94.0664 44.4341 94.2705 44.6383L96.17 46.5378C96.3776 46.7454 96.3715 47.0852 96.1448 47.2718C95.3937 47.8899 94.5533 48.3892 93.6238 48.7694C92.5398 49.2197 91.2807 49.4448 89.8465 49.4448Z" fill="black"/>
<path d="M75.9052 49.1697C75.6199 49.1697 75.3885 48.9383 75.3885 48.653V32.0257C75.3885 31.7403 75.6199 31.509 75.9052 31.509H78.7993C79.0846 31.509 79.3159 31.7403 79.3159 32.0257V48.653C79.3159 48.9383 79.0846 49.1697 78.7993 49.1697H75.9052Z" fill="black"/>
<path d="M97.4624 48.653C97.4624 48.9383 97.6938 49.1697 97.9791 49.1697H100.873C100.891 49.1697 100.909 49.1687 100.927 49.1669C100.945 49.1687 100.963 49.1697 100.981 49.1697H109.628C109.914 49.1697 110.145 48.9383 110.145 48.653V46.2843C110.145 45.9989 109.914 45.7676 109.628 45.7676H101.39V41.7902H108.753C109.038 41.7902 109.27 41.5589 109.27 41.2735V39.0299C109.27 38.7445 109.038 38.5132 108.753 38.5132H101.39V34.886H109.503C109.789 34.886 110.02 34.6547 110.02 34.3694V32.0257C110.02 31.7403 109.789 31.509 109.503 31.509H100.981C100.963 31.509 100.945 31.5099 100.927 31.5118C100.909 31.5099 100.891 31.509 100.873 31.509H97.9791C97.6938 31.509 97.4624 31.7403 97.4624 32.0257V48.653Z" fill="black"/>
<path fill-rule="evenodd" clip-rule="evenodd" d="M115.12 49.1697C115.094 49.1697 115.067 49.1676 115.041 49.1637C115.016 49.1676 114.989 49.1697 114.963 49.1697H112.119C111.833 49.1697 111.602 48.9383 111.602 48.653V32.0257C111.602 31.7403 111.833 31.509 112.119 31.509H114.963C114.989 31.509 115.016 31.511 115.041 31.515C115.067 31.511 115.094 31.509 115.12 31.509H119.181C120.315 31.509 121.274 31.7175 122.058 32.1344C122.859 32.5513 123.467 33.11 123.884 33.8104C124.301 34.5108 124.51 35.2863 124.51 36.1368C124.51 37.2208 124.159 38.138 123.459 38.8885C123.157 39.2118 122.794 39.4917 122.368 39.7284C122.965 40.0207 123.47 40.3912 123.884 40.8396C124.701 41.7068 125.11 42.7741 125.11 44.0416C125.11 45.0088 124.868 45.8843 124.385 46.6682C123.918 47.4353 123.234 48.044 122.333 48.4943C121.449 48.9445 120.382 49.1697 119.131 49.1697H115.12ZM115.479 46.1178H118.756C119.523 46.1178 120.124 45.8927 120.557 45.4424C120.991 44.9921 121.208 44.4418 121.208 43.7914C121.208 43.3411 121.108 42.9409 120.907 42.5907C120.707 42.2405 120.424 41.9653 120.057 41.7652C119.707 41.5651 119.273 41.465 118.756 41.465H115.479V46.1178ZM118.431 38.4882H115.479V34.5608H118.431C119.081 34.5608 119.607 34.7276 120.007 35.0611C120.407 35.378 120.607 35.8616 120.607 36.512C120.607 37.1791 120.407 37.6794 120.007 38.0129C119.607 38.3298 119.081 38.4882 118.431 38.4882Z" fill="black"/>
<path d="M126.376 48.653C126.376 48.9383 126.608 49.1697 126.893 49.1697H129.787C129.805 49.1697 129.823 49.1687 129.841 49.1669C129.859 49.1687 129.877 49.1697 129.895 49.1697H138.542C138.828 49.1697 139.059 48.9383 139.059 48.653V46.2843C139.059 45.9989 138.828 45.7676 138.542 45.7676H130.304V41.7902H137.667C137.952 41.7902 138.184 41.5589 138.184 41.2735V39.0299C138.184 38.7445 137.952 38.5132 137.667 38.5132H130.304V34.886H138.417C138.703 34.886 138.934 34.6547 138.934 34.3694V32.0257C138.934 31.7403 138.703 31.509 138.417 31.509H129.895C129.877 31.509 129.859 31.5099 129.841 31.5118C129.823 31.5099 129.805 31.509 129.787 31.509H126.893C126.608 31.509 126.376 31.7403 126.376 32.0257V48.653Z" fill="black"/>
<path fill-rule="evenodd" clip-rule="evenodd" d="M144.443 48.653V41.8903H144.959C144.963 41.9869 144.994 42.0843 145.057 42.1711L149.967 48.9559C150.064 49.0902 150.22 49.1697 150.385 49.1697H153.73C154.157 49.1697 154.4 48.6794 154.14 48.3394L149.117 41.7631C149.718 41.6562 150.27 41.4818 150.772 41.2399C151.673 40.8063 152.373 40.2059 152.873 39.4388C153.374 38.655 153.624 37.7461 153.624 36.7121C153.624 35.6949 153.374 34.7943 152.873 34.0105C152.373 33.2267 151.681 32.618 150.797 32.1844C149.913 31.7341 148.888 31.509 147.72 31.509H144.034C144.016 31.509 143.998 31.5099 143.98 31.5118C143.963 31.5099 143.945 31.509 143.927 31.509H141.032C140.747 31.509 140.516 31.7403 140.516 32.0257V48.653C140.516 48.9383 140.747 49.1697 141.032 49.1697H143.927C144.212 49.1697 144.443 48.9383 144.443 48.653ZM147.245 38.9885H144.443V34.5608H147.27C148.054 34.5608 148.654 34.7693 149.071 35.1862C149.488 35.6031 149.696 36.1285 149.696 36.7622C149.696 37.4459 149.48 37.9879 149.046 38.3882C148.629 38.7884 148.029 38.9885 147.245 38.9885Z" fill="black"/>
<path d="M159.871 48.7444C161.005 49.2114 162.214 49.4448 163.498 49.4448C165.249 49.4448 166.792 49.0779 168.126 48.3442C169.477 47.6104 170.528 46.5264 171.278 45.0922C172.045 43.6413 172.429 41.8569 172.429 39.739V39.6803C172.429 39.3949 172.197 39.1636 171.912 39.1636H163.665C163.379 39.1636 163.148 39.3949 163.148 39.6803V41.9821C163.148 42.2642 163.374 42.4942 163.657 42.4987L168.222 42.5712C168.125 42.9387 167.993 43.2787 167.826 43.5913C167.442 44.3251 166.884 44.8921 166.15 45.2923C165.433 45.6759 164.557 45.8677 163.523 45.8677C162.506 45.8677 161.605 45.6342 160.822 45.1672C160.038 44.7003 159.421 44.0499 158.971 43.2161C158.52 42.3822 158.295 41.415 158.295 40.3143C158.295 39.2136 158.52 38.2547 158.971 37.4376C159.437 36.6037 160.08 35.9617 160.897 35.5114C161.714 35.0445 162.639 34.811 163.673 34.811C164.641 34.811 165.508 34.9944 166.275 35.3613C166.877 35.6493 167.418 36.0504 167.897 36.5646C168.109 36.7924 168.471 36.8174 168.691 36.5971L170.617 34.6716C170.807 34.4817 170.821 34.1766 170.636 33.9821C169.873 33.1817 168.945 32.5407 167.851 32.0593C166.617 31.509 165.241 31.2338 163.723 31.2338C162.406 31.2338 161.172 31.4673 160.021 31.9342C158.87 32.3845 157.862 33.0266 156.994 33.8604C156.144 34.6776 155.477 35.6365 154.993 36.7372C154.509 37.8378 154.268 39.0302 154.268 40.3143C154.268 41.5984 154.501 42.7992 154.968 43.9165C155.452 45.0172 156.11 45.9844 156.944 46.8182C157.778 47.6354 158.754 48.2775 159.871 48.7444Z" fill="black"/>
<path d="M23.7168 25.2183C21.5042 28.0319 21.5042 32.15 21.5042 40.3862C21.5042 48.6224 21.5042 52.7405 23.7168 55.5541C24.2245 56.1998 24.8074 56.7827 25.4531 57.2905C25.7002 57.4848 25.9574 57.6621 26.2266 57.8238L37.1179 33.7779C37.5914 32.7325 38.7906 32.2288 39.8686 32.6223L46.7897 35.1491C47.4435 35.3877 47.9452 35.9225 48.1418 36.5901L54.4803 58.1171C54.9493 57.8832 55.3827 57.6099 55.7889 57.2905C56.4346 56.7827 57.0175 56.1998 57.5253 55.5541C59.7379 52.7405 59.7379 48.6224 59.7379 40.3862C59.7379 32.15 59.7379 28.0319 57.5253 25.2183C57.0175 24.5726 56.4346 23.9897 55.7889 23.482C52.9753 21.2693 48.8572 21.2693 40.621 21.2693C32.3848 21.2693 28.2667 21.2693 25.4531 23.482C24.8074 23.9897 24.2245 24.5726 23.7168 25.2183Z" fill="black"/>
</svg>
