<svg width="106" height="106" viewBox="0 0 106 106" fill="none" xmlns="http://www.w3.org/2000/svg">
<rect width="105.393" height="105.393" rx="24" fill="#09AEAF" fill-opacity="0.13"/>
<path d="M53.2414 50.2449C51.5797 50.2449 50.2449 51.5797 50.2449 53.2414C50.2449 54.9032 51.5797 56.238 53.2414 56.238C54.9032 56.238 56.238 54.9032 56.238 53.2414C56.238 51.5797 54.9032 50.2449 53.2414 50.2449ZM53.2414 26C38.2042 26 26 38.2042 26 53.2414C26 68.2787 38.2042 80.4829 53.2414 80.4829C68.2787 80.4829 80.4829 68.2787 80.4829 53.2414C80.4829 38.2042 68.2787 26 53.2414 26ZM59.2073 59.2073L36.8966 69.5863L47.2756 47.2756L69.5863 36.8966L59.2073 59.2073Z" fill="#09AEAF"/>
</svg>
