<svg width="64" height="64" viewBox="0 0 64 64" fill="none" xmlns="http://www.w3.org/2000/svg">
<rect width="64" height="64" rx="32" fill="#09AEAF"/>
<path d="M32.75 17C26.3369 17 20 21.1951 20 27.9875C20 32.3062 22.4739 34.7611 23.9745 34.7611C24.5935 34.7611 24.9515 33.0674 24.9515 32.5888C24.9515 32.0184 23.4687 30.8027 23.4687 28.4282C23.4687 23.4958 27.2939 20.0005 32.2442 20.0005C36.5011 20.0005 39.6505 22.3733 39.6505 26.7354C39.6505 29.9928 38.3182 36.1028 34.0058 36.1028C32.4495 36.1028 31.1192 34.9992 31.1192 33.417C31.1192 31.0984 32.6316 28.8524 32.6316 26.4594C32.6316 22.3973 26.9005 23.1343 26.9005 28.0432C26.9005 29.0736 27.0314 30.2141 27.5 31.1527C26.6385 34.7969 25.0526 40.6052 25.0526 44.3609C25.0526 45.5203 25.2215 46.661 25.3339 47.8216C25.5461 48.0547 25.441 48.0302 25.7656 47.9136C28.9159 43.6805 28.6237 42.4735 30.0485 36.9334C30.8178 38.3693 32.8056 39.1421 34.3808 39.1421C41.0187 39.1421 44 32.792 44 27.0672C44 20.9754 38.6376 17 32.75 17Z" fill="white"/>
</svg>
