<svg width="64" height="64" viewBox="0 0 64 64" fill="none" xmlns="http://www.w3.org/2000/svg">
<rect width="64" height="64" rx="32" fill="#09AEAF"/>
<path d="M26.6449 19C22.4485 19 19 22.4439 19 26.6449V37.3551C19 41.5515 22.4439 45 26.6449 45H37.3551C41.5515 45 45 41.5561 45 37.3551V26.6449C45 22.4485 41.5561 19 37.3551 19H26.6449ZM26.6449 21.3636H37.3551C40.2773 21.3636 42.6364 23.7227 42.6364 26.6449V37.3551C42.6364 40.2773 40.2773 42.6364 37.3551 42.6364H26.6449C23.7227 42.6364 21.3636 40.2773 21.3636 37.3551V26.6449C21.3636 23.7227 23.7227 21.3636 26.6449 21.3636ZM38.9801 23.9489C38.3846 23.9489 37.9091 24.4244 37.9091 25.0199C37.9091 25.6154 38.3846 26.0909 38.9801 26.0909C39.5756 26.0909 40.0511 25.6154 40.0511 25.0199C40.0511 24.4244 39.5756 23.9489 38.9801 23.9489ZM32 24.9091C28.0991 24.9091 24.9091 28.0991 24.9091 32C24.9091 35.9009 28.0991 39.0909 32 39.0909C35.9009 39.0909 39.0909 35.9009 39.0909 32C39.0909 28.0991 35.9009 24.9091 32 24.9091ZM32 27.2727C34.6268 27.2727 36.7273 29.3732 36.7273 32C36.7273 34.6268 34.6268 36.7273 32 36.7273C29.3732 36.7273 27.2727 34.6268 27.2727 32C27.2727 29.3732 29.3732 27.2727 32 27.2727Z" fill="white"/>
</svg>
