<svg width="64" height="64" viewBox="0 0 64 64" fill="none" xmlns="http://www.w3.org/2000/svg">
<rect width="64" height="64" rx="32" fill="#09AEAF"/>
<path d="M47 22.7253C45.9122 23.1939 44.7612 23.5026 43.5834 23.6417C44.8212 22.9231 45.752 21.7816 46.2013 20.4313C45.0311 21.1096 43.7529 21.5856 42.4216 21.8388C41.861 21.2563 41.1868 20.793 40.4399 20.4769C39.6931 20.1608 38.8891 19.9985 38.0771 20C34.7892 20 32.1284 22.5995 32.1284 25.8039C32.1261 26.2496 32.1776 26.694 32.2819 27.1276C29.9242 27.018 27.6156 26.4218 25.5037 25.377C23.3918 24.3322 21.5232 22.8619 20.0173 21.0602C19.489 21.9431 19.2096 22.9505 19.2083 23.9771C19.2083 25.9896 20.2674 27.7685 21.8667 28.8107C20.9192 28.7884 19.9911 28.5398 19.1612 28.0859V28.1578C19.1612 30.9729 21.2154 33.3148 23.9341 33.8479C23.4229 33.983 22.896 34.0515 22.3669 34.0515C21.9915 34.0522 21.6169 34.0161 21.2486 33.9437C22.0044 36.2497 24.2042 37.9268 26.81 37.9747C24.6926 39.5924 22.093 40.4668 19.4198 40.4604C18.9453 40.4597 18.4712 40.4317 18 40.3765C20.7195 42.098 23.8806 43.0086 27.1072 42.9999C38.0644 42.9999 44.0505 34.1534 44.0505 26.4807C44.0505 26.2292 44.0438 25.9776 44.0317 25.732C45.1936 24.9127 46.1988 23.8945 47 22.7253Z" fill="white"/>
</svg>
