<svg width="64" height="64" viewBox="0 0 64 64" fill="none" xmlns="http://www.w3.org/2000/svg">
<rect width="64" height="64" rx="32" fill="#09AEAF"/>
<path d="M23.1459 19C21.409 19 20 20.3965 20 22.1207C20 23.845 21.4079 25.2738 23.1436 25.2738C24.8793 25.2738 26.2895 23.845 26.2895 22.1207C26.2895 20.3976 24.8828 19 23.1459 19ZM38.4942 27.2727C35.8526 27.2727 34.3411 28.6442 33.6161 30.008H33.5393V27.6397H28.3333V45H33.7579V36.4064C33.7579 34.1421 33.9301 31.9538 36.7527 31.9538C39.5348 31.9538 39.5754 34.5357 39.5754 36.5495V45H44.993H45V35.4647C45 30.7988 43.9895 27.2727 38.4942 27.2727ZM20.4325 27.6397V45H25.8617V27.6397H20.4325Z" fill="white"/>
</svg>
