<svg width="64" height="64" viewBox="0 0 64 64" fill="none" xmlns="http://www.w3.org/2000/svg">
<rect width="64" height="64" rx="32" fill="#09AEAF"/>
<path d="M48.2895 24.5987C47.8985 23.1822 46.7464 22.0666 45.2836 21.688C42.6321 21 32 21 32 21C32 21 21.368 21 18.7164 21.688C17.2536 22.0666 16.1015 23.1822 15.7105 24.5987C15 27.1663 15 32.5232 15 32.5232C15 32.5232 15 37.8802 15.7105 40.4478C16.1015 41.8643 17.2536 42.9334 18.7164 43.312C21.368 44 32 44 32 44C32 44 42.632 44 45.2836 43.312C46.7464 42.9334 47.8985 41.8643 48.2895 40.4478C49 37.8802 49 32.5232 49 32.5232C49 32.5232 49 27.1663 48.2895 24.5987ZM28.5227 37.387V27.6595L37.409 32.5234L28.5227 37.387Z" fill="white"/>
</svg>
