<svg width="17" height="17" viewBox="0 0 17 17" fill="none" xmlns="http://www.w3.org/2000/svg">
<path d="M1.11332 9.29722H7.07057V15.2545C7.07057 15.86 7.56864 16.3678 8.18389 16.3678C8.79915 16.3678 9.29721 15.86 9.29721 15.2545V9.29722H15.2545C15.86 9.29722 16.3678 8.79915 16.3678 8.18389C16.3678 7.56864 15.86 7.07057 15.2545 7.07057H9.29721V1.11332C9.29721 0.507831 8.79915 0 8.18389 0C7.56864 0 7.07057 0.507831 7.07057 1.11332V7.07057H1.11332C0.507831 7.07057 0 7.56864 0 8.18389C0 8.79915 0.507831 9.29722 1.11332 9.29722Z" fill="#1A0F91"/>
</svg>
