<svg width="62" height="62" viewBox="0 0 62 62" fill="none" xmlns="http://www.w3.org/2000/svg">
<circle cx="30.5216" cy="30.5216" r="30.5216" fill="white"/>
<path d="M22.87 44V19.57H33.86C34.98 19.57 35.9833 19.7567 36.87 20.13C37.78 20.48 38.55 20.9933 39.18 21.67C39.81 22.3233 40.2883 23.1167 40.615 24.05C40.9417 24.9833 41.105 26.01 41.105 27.13C41.105 28.2733 40.9417 29.3117 40.615 30.245C40.2883 31.155 39.81 31.9483 39.18 32.625C38.55 33.2783 37.78 33.7917 36.87 34.165C35.9833 34.515 34.98 34.69 33.86 34.69H27.49V44H22.87ZM27.49 30.7H33.44C34.3267 30.7 35.0267 30.4667 35.54 30C36.0533 29.51 36.31 28.8217 36.31 27.935V26.325C36.31 25.4383 36.0533 24.7617 35.54 24.295C35.0267 23.8283 34.3267 23.595 33.44 23.595H27.49V30.7Z" fill="#09AEAF"/>
</svg>
