<svg width="16" height="16" viewBox="0 0 16 16" fill="none" xmlns="http://www.w3.org/2000/svg">
<path d="M0.313743 13.8592C-0.0964286 14.2693 -0.115961 15.0018 0.323509 15.4315C0.753212 15.8612 1.48566 15.8514 1.89583 15.4412L7.87261 9.4547L13.8592 15.4412C14.2791 15.8612 15.0018 15.8612 15.4315 15.4315C15.8514 14.992 15.8612 14.2791 15.4315 13.8592L9.4547 7.87261L15.4315 1.89583C15.8612 1.47589 15.8612 0.753212 15.4315 0.323509C14.992 -0.0964286 14.2791 -0.106195 13.8592 0.313743L7.87261 6.30029L1.89583 0.313743C1.48566 -0.0964286 0.743446 -0.115961 0.323509 0.323509C-0.106195 0.753212 -0.0964286 1.48566 0.313743 1.89583L6.30029 7.87261L0.313743 13.8592Z" fill="#1A0F91"/>
</svg>
