<?xml version="1.0" encoding="UTF-8" standalone="no"?>
<!DOCTYPE svg PUBLIC "-//W3C//DTD SVG 1.1//EN" "http://www.w3.org/Graphics/SVG/1.1/DTD/svg11.dtd">
<svg width="100%" height="100%" viewBox="0 0 6425 1846" version="1.1" style="fill-rule:evenodd;clip-rule:evenodd;stroke-linejoin:round;stroke-miterlimit:2;">
    <g transform="matrix(4.16667,0,0,4.16667,0,0)">
        <path d="M1418,379.903C1416.72,337.926 1408.09,297.713 1389.63,259.836C1378.64,237.265 1364.88,216.697 1346.01,199.759C1330.13,185.496 1319.09,167.984 1312.99,147.495C1299.64,102.609 1314.94,55.536 1353.47,25.444C1421.62,-27.778 1523.14,9.823 1539.35,94.696C1546.8,133.725 1536.1,168.457 1507.33,195.655C1470.35,230.621 1449.45,273.564 1438.7,322.31C1433.62,345.345 1431.73,368.785 1431.06,392.33C1431.03,393.164 1431.06,394.005 1430.97,394.833C1430.47,399.487 1427.95,402.829 1425,402.819C1421.92,402.809 1418.24,398.687 1418.06,394.509C1417.84,389.65 1418,384.773 1418,379.903Z" style="fill:rgb(3,4,4);fill-rule:nonzero;"/>
        <path d="M37.973,297.758C37.973,315.583 37.961,333.407 37.98,351.232C37.987,358.356 40.624,362.661 47.426,364.8C60.216,368.823 73.227,368.967 86.046,364.94C93.354,362.644 96.224,358.107 96.235,350.522C96.287,315.43 96.24,280.337 96.439,245.246C96.473,239.165 94.035,234.899 88.822,232.499C74.243,225.784 59.482,225.661 44.894,232.492C40.111,234.731 37.852,238.716 37.907,244.285C38.084,262.109 37.973,279.933 37.973,297.758ZM0.141,312.53C0.141,276.89 0.168,241.25 0.093,205.611C0.087,202.479 0.562,200.622 4.316,200.654C29.093,200.865 53.885,200.06 78.643,201.295C91.044,201.913 102.719,205.706 113.337,212.201C126.746,220.402 133.744,232.739 133.886,248.268C134.229,285.854 134.109,323.445 133.995,361.033C133.971,368.978 129.522,374.929 123.569,379.728C113.886,387.535 102.472,391.567 90.445,393.633C74.006,396.458 57.512,396.934 41.246,392.221C38.613,391.458 37.892,392.132 37.915,394.878C38.045,409.773 37.937,424.67 38.058,439.565C38.083,442.686 37.809,443.859 34.241,442.338C25.028,438.412 15.693,434.801 7.138,429.479C2.28,426.456 -0.053,422.7 0,416.524C0.307,381.861 0.148,347.195 0.141,312.53Z" style="fill:rgb(35,31,32);fill-rule:nonzero;"/>
        <path d="M370.506,251.665C373.394,251.374 375.07,249.454 376.844,247.714C391.553,233.285 406.298,218.892 420.919,204.374C423.699,201.614 426.679,200.477 430.587,200.517C442.835,200.645 455.086,200.465 467.336,200.44C468.791,200.437 470.733,199.884 471.296,201.782C471.769,203.376 469.954,204.026 469.011,204.952C447.36,226.22 425.711,247.489 403.987,268.682C402.204,270.421 402.281,271.684 403.485,273.663C426.317,311.212 448.126,349.376 471.311,386.716C472.016,387.851 473.456,389.054 472.801,390.391C471.988,392.052 470.052,391.231 468.628,391.239C457.073,391.298 445.515,391.14 433.963,391.339C430.623,391.396 428.729,390.334 427.032,387.439C410.293,358.884 393.421,330.407 376.527,301.943C375.76,300.651 375.439,298.107 373.33,298.769C371.293,299.408 371.059,301.724 371.069,303.749C371.203,331.45 371.297,359.152 371.535,386.853C371.562,390.023 370.816,391.313 367.384,391.243C357.782,391.048 348.166,390.982 338.569,391.289C334.303,391.425 333.157,390.077 333.17,385.864C333.348,327.391 333.355,268.917 333.41,210.443C333.429,189.838 333.574,169.232 333.4,148.629C333.365,144.484 334.701,143.549 338.634,143.648C347.534,143.874 356.447,143.574 365.355,143.462C370.636,143.397 371.32,144.038 371.32,149.391C371.317,180.438 371.327,211.485 371.262,242.531C371.256,245.551 370.774,248.57 370.506,251.665Z" style="fill:rgb(35,31,32);fill-rule:nonzero;"/>
        <path d="M1281.85,306.656C1281.85,339.241 1281.67,371.827 1281.96,404.409C1282.05,415.344 1278.5,423.787 1269.47,430.139C1263.05,434.645 1256.49,438.757 1249.19,441.631C1245.02,443.274 1244.43,442.967 1244.41,438.382C1244.32,424.179 1244.21,409.973 1244.4,395.772C1244.45,391.966 1243.31,391.403 1239.86,392.204C1218.38,397.198 1197.06,396.765 1176.12,389.447C1168.02,386.616 1160.72,382.356 1154.91,375.832C1150.56,370.943 1148.23,365.27 1148.31,358.722C1148.95,310.123 1148.77,261.525 1148.26,212.927C1148.23,210.426 1148.45,207.91 1148.24,205.428C1147.96,202.152 1149.09,200.875 1152.5,201.112C1159.44,201.595 1166.4,201.789 1173.35,202.086C1176.16,202.206 1178.95,201.936 1181.62,201.133C1184.6,200.237 1185.25,201.4 1185.25,204.152C1185.27,215.846 1185.52,227.539 1185.54,239.233C1185.61,275.996 1185.6,312.759 1185.65,349.521C1185.66,359.623 1188.84,363.948 1198.73,366.482C1210.91,369.603 1223.06,368.831 1234.93,364.864C1242.28,362.407 1244.25,359.184 1244.33,351.026C1244.81,302.987 1245.7,254.95 1244.43,206.91C1244.27,201.199 1244.37,201.271 1250.02,201.281C1259.19,201.298 1268.39,202.013 1277.54,200.718C1279.96,200.376 1281.3,201.433 1281.37,203.885C1281.43,206.25 1281.38,208.619 1281.38,210.986C1281.37,242.876 1281.37,274.766 1281.37,306.656L1281.85,306.656Z" style="fill:rgb(145,147,149);fill-rule:nonzero;"/>
        <path d="M528.421,274.068L528.447,274.068C528.447,284.649 528.481,295.23 528.422,305.811C528.408,308.481 529.179,310.034 532.077,308.862C546.396,303.075 560.841,297.513 573.147,287.802C582.066,280.763 587.396,271.979 586.773,260.174C586.545,255.87 586.801,251.543 586.799,247.228C586.794,238.297 583.99,234.074 575.578,230.786C566.495,227.236 557.073,227.265 547.609,228.694C542.626,229.446 537.863,230.962 533.603,233.797C530.099,236.128 528.31,239.215 528.374,243.578C528.522,253.739 528.421,263.904 528.421,274.068ZM490.576,282.456C490.576,256.699 490.596,230.942 490.546,205.186C490.541,202.562 490.587,200.606 494.15,200.659C519.341,201.037 544.556,199.809 569.723,201.352C581.806,202.092 593.231,205.727 603.551,212.253C615.682,219.924 623.159,230.725 624.279,245.23C625.105,255.921 624.766,266.667 624.177,277.368C623.773,284.709 619.615,290.373 614.623,295.409C604.533,305.586 592.035,311.988 579.148,317.717C564.243,324.343 548.762,329.328 532.96,333.281C529.661,334.106 528.232,335.454 528.411,338.923C528.647,343.505 528.423,348.109 528.489,352.703C528.562,357.757 530.761,361.421 535.525,363.53C548.961,369.478 562.615,368.987 576.213,364.558C582.697,362.447 587.99,357.247 586.672,349.051C586.236,346.336 587.4,344.584 590.326,343.99C600.546,341.914 610.747,339.738 620.945,337.554C623.223,337.066 624.396,337.691 624.391,340.182C624.379,347.002 624.52,353.822 624.42,360.64C624.38,363.315 623.235,365.739 621.797,368.017C615.298,378.309 606.159,385.488 594.794,389.369C569.349,398.057 543.726,397.987 518.24,389.394C511.619,387.162 505.615,383.592 500.354,378.883C493.891,373.097 490.509,366.106 490.575,357.22C490.759,332.3 490.639,307.377 490.639,282.456L490.576,282.456Z" style="fill:rgb(35,31,32);fill-rule:nonzero;"/>
        <path d="M203.219,297.101L203.025,297.101C203.025,314.35 203.047,331.599 203.016,348.848C202.999,358.703 205.973,363.019 215.506,365.849C227.353,369.364 239.175,368.735 250.718,364.496C259.712,361.194 261.935,357.787 261.652,348.188C260.648,314.109 261.209,280.033 261.687,245.956C261.834,235.532 258.92,231.553 248.765,229.194C237.16,226.499 225.516,227.162 214.071,230.028C206.024,232.043 203.214,236.264 203.217,244.518C203.223,262.045 203.219,279.573 203.219,297.101ZM165.557,282.838C165.557,256.938 165.597,231.039 165.504,205.141C165.493,202.021 166.267,200.542 169.672,200.594C194.033,200.96 218.411,200.099 242.757,201.325C253.828,201.883 264.52,204.554 274.364,209.823C289.503,217.925 298.339,230.214 298.777,247.811C299.706,285.121 299.169,322.437 299.231,359.751C299.247,369.375 293.769,376.202 286.299,381.481C275.006,389.461 262.209,393.557 248.563,394.827C230.58,396.501 212.703,396.361 195.318,390.359C185.915,387.112 177.671,382.212 171.169,374.57C167.513,370.274 165.554,365.433 165.57,359.699C165.637,334.078 165.599,308.458 165.599,282.838L165.557,282.838Z" style="fill:rgb(35,31,32);fill-rule:nonzero;"/>
        <path d="M809.259,298.184C809.259,316.147 809.357,334.109 809.203,352.07C809.153,357.955 811.474,361.931 816.863,364.177C831.408,370.238 845.994,369.162 860.438,364.032C865.537,362.221 867.626,357.639 868.041,352.471C868.273,349.575 868.324,346.58 867.842,343.734C867.274,340.383 868.468,339.368 871.629,338.906C880.156,337.661 888.627,336.029 897.136,334.651C899.429,334.279 901.81,331.682 903.693,333.14C905.797,334.769 904.865,338.092 904.967,340.658C905.259,348.02 905.702,355.387 904.643,362.753C904.169,366.051 902.915,368.849 900.941,371.449C892.572,382.478 881.36,389.175 868.045,392.088C845.079,397.114 822.222,397.562 799.945,388.556C792.933,385.721 786.441,381.94 780.938,376.669C775.04,371.02 771.934,364.344 772.09,355.886C772.74,320.526 773.051,285.16 772.271,249.795C771.886,232.335 779.963,219.718 794.743,211.16C806.46,204.376 819.439,201.948 832.76,201.297C852.243,200.344 871.737,200.861 891.226,201.272C893.592,201.322 895.974,201.422 898.323,201.21C904.771,200.63 904.921,199.787 904.866,207.402C904.751,223.274 904.519,239.147 904.582,255.019C904.597,258.592 903.479,259.385 900.049,259.307C890.589,259.09 881.114,259.169 871.655,259.458C868.62,259.549 867.686,258.657 867.824,255.762C868.016,251.733 867.882,247.688 867.987,243.653C868.121,238.507 865.878,234.618 861.343,232.506C846.19,225.447 830.912,225.597 815.841,232.721C811.211,234.909 809.125,238.956 809.166,244.298C809.303,262.26 809.218,280.222 809.218,298.184L809.259,298.184Z" style="fill:rgb(145,147,149);fill-rule:nonzero;"/>
        <path d="M1028.76,290.35C1028.76,270.999 1028.68,251.647 1028.83,232.298C1028.86,228.4 1027.96,226.755 1023.7,227.259C1019.72,227.729 1015.64,227.437 1011.61,227.406C1009.09,227.387 1007.94,226.919 1008.29,223.535C1008.95,217.2 1008.62,210.747 1008.45,204.35C1008.37,201.438 1009.36,200.268 1012.26,200.399C1016.02,200.568 1019.8,200.308 1023.53,200.655C1027.6,201.034 1029.17,199.896 1029.04,195.461C1028.71,184.334 1029.04,173.188 1028.82,162.055C1028.75,158.64 1029.93,157.624 1033.15,157.787C1042.88,158.28 1052.62,158.806 1062.36,158.026C1065.5,157.774 1066.66,159.471 1066.36,162.386C1065.16,173.913 1066.72,185.462 1066.07,196.998C1065.87,200.48 1068.59,200.469 1071.02,200.474C1084.94,200.499 1098.86,200.503 1112.78,200.504C1119.77,200.504 1119.79,200.495 1119.83,207.652C1119.86,212.942 1119.69,218.237 1119.87,223.521C1119.98,226.693 1118.72,227.531 1115.69,227.501C1100.93,227.357 1086.17,227.523 1071.42,227.317C1067.7,227.266 1066.42,228.17 1066.43,232.124C1066.55,271.102 1066.5,310.082 1066.41,349.061C1066.4,353.127 1068.07,355.994 1071.33,358.103C1075.03,360.498 1079.08,361.777 1083.52,361.861C1088.95,361.964 1094.37,362.235 1099.8,362.276C1102.19,362.294 1103.35,362.955 1103.28,365.611C1103.09,372.847 1103.1,380.088 1103.06,387.327C1103.05,389.17 1102.75,390.655 1100.43,390.721C1086.54,391.115 1072.6,392.412 1058.98,388.257C1039.93,382.443 1029.2,368.294 1028.72,347.983C1028.49,338.383 1028.67,328.773 1028.67,319.167L1028.67,290.35L1028.76,290.35Z" style="fill:rgb(145,147,149);fill-rule:nonzero;"/>
        <path d="M655.755,295.845C655.733,266.204 656.337,236.56 655.467,206.922C655.294,201.022 655.876,200.665 661.832,200.718C685.767,200.933 709.702,201.09 733.638,201.186C736.546,201.198 739.461,200.763 742.362,200.436C745.046,200.134 746.152,200.881 744.825,203.631C741.36,210.81 736.65,217.197 732.018,223.623C730.775,225.348 728.733,225.475 726.698,225.348C719.108,224.872 711.73,226.11 704.507,228.341C696.004,230.967 693.199,234.876 693.2,244.002C693.203,290.486 693.228,336.969 693.223,383.452C693.222,392.102 694.098,391.154 685.326,391.188C677.254,391.22 669.182,391.201 661.11,391.193C655.725,391.187 655.268,391.002 655.459,385.597C656.331,360.968 655.19,336.337 655.738,311.71C655.855,306.424 655.755,301.134 655.755,295.845Z" style="fill:rgb(35,31,32);fill-rule:nonzero;"/>
        <path d="M941.968,295.818C941.968,266.182 941.965,236.546 941.971,206.91C941.972,201.289 941.989,201.281 947.768,201.287C956.812,201.296 965.858,201.415 974.9,201.274C977.97,201.226 978.973,202.196 978.965,205.332C978.822,265.717 978.752,326.102 978.782,386.487C978.784,389.931 977.507,390.707 974.391,390.65C965.211,390.484 956.021,390.368 946.846,390.623C942.89,390.733 941.669,389.639 941.692,385.56C941.862,355.647 941.784,325.732 941.784,295.818L941.968,295.818Z" style="fill:rgb(145,147,149);fill-rule:nonzero;"/>
        <path d="M1459.28,6.05C1424.85,-4.512 1385.48,0.444 1353.47,25.442C1314.94,55.533 1299.64,102.607 1312.99,147.492C1319.09,167.982 1330.13,185.493 1346.01,199.757C1364.88,216.694 1378.64,237.263 1389.63,259.834C1408.09,297.711 1416.72,337.923 1418,379.901C1418,384.771 1417.84,389.647 1418.06,394.507C1418.24,398.685 1421.92,402.806 1425,402.817C1427.95,402.827 1430.47,399.485 1430.97,394.83C1431.06,394.003 1431.03,393.162 1431.06,392.327C1431.73,368.783 1433.62,345.342 1438.7,322.308C1443.43,300.871 1450.12,280.558 1459.28,261.55L1459.28,6.05Z" style="fill:url(#_Linear1);"/>
        <path d="M1464.06,94.533C1460.17,94.533 1456.42,95.166 1452.91,96.309C1458,90.087 1461.06,82.141 1461.06,73.478C1461.06,53.538 1444.89,37.374 1424.95,37.374C1405.01,37.374 1388.85,53.538 1388.85,73.477C1388.85,82.141 1391.91,90.087 1396.99,96.308C1393.48,95.165 1389.73,94.531 1385.84,94.531C1365.9,94.531 1349.74,110.695 1349.74,130.633C1349.74,150.572 1365.9,166.737 1385.84,166.737C1401.05,166.737 1414.04,157.313 1419.36,143.989C1414.72,169.698 1403.89,190.809 1403.89,190.809L1446.01,190.809C1446.01,190.809 1435.07,169.813 1430.47,143.778C1435.72,157.21 1448.77,166.738 1464.06,166.738C1484,166.738 1500.16,150.572 1500.16,130.634C1500.17,110.695 1484,94.533 1464.06,94.533Z" style="fill:white;fill-rule:nonzero;"/>
    </g>
    <defs>
        <linearGradient id="_Linear1" x1="0" y1="0" x2="1" y2="0" gradientUnits="userSpaceOnUse" gradientTransform="matrix(151.026,0,0,151.026,1308.25,201.821)"><stop offset="0" style="stop-color:rgb(34,30,31);stop-opacity:1"/><stop offset="0.1" style="stop-color:rgb(115,115,116);stop-opacity:1"/><stop offset="0.3" style="stop-color:rgb(105,105,105);stop-opacity:1"/><stop offset="0.7" style="stop-color:rgb(39,39,39);stop-opacity:1"/><stop offset="1" style="stop-color:rgb(3,4,4);stop-opacity:1"/></linearGradient>
    </defs>
</svg>
